<svg width="100" height="100" viewBox="0 0 100 100" xmlns="http://www.w3.org/2000/svg">
  <!-- Background circle -->
  <circle cx="50" cy="50" r="45" fill="#f8d7da" opacity="0.3"/>
  
  <!-- Letter P (first) -->
  <path d="M25 25 L25 75 L25 25 L40 25 Q50 25 50 35 Q50 45 40 45 L25 45" 
        stroke="#e91e63" stroke-width="8" fill="none" stroke-linecap="round" stroke-linejoin="round"/>
  
  <!-- Letter P (second) with leaves -->
  <g transform="translate(45, 25)">
    <!-- Second P -->
    <path d="M5 0 L5 50 M5 0 L20 0 Q30 0 30 10 Q30 20 20 20 L5 20" 
          stroke="#4caf50" stroke-width="6" fill="none" stroke-linecap="round" stroke-linejoin="round"/>
    
    <!-- Leaves -->
    <ellipse cx="25" cy="15" rx="8" ry="4" fill="#4caf50" transform="rotate(30 25 15)"/>
    <ellipse cx="30" cy="25" rx="6" ry="3" fill="#66bb6a" transform="rotate(-20 30 25)"/>
    <ellipse cx="20" cy="30" rx="5" ry="2.5" fill="#81c784" transform="rotate(45 20 30)"/>
    
    <!-- Water drops -->
    <circle cx="35" cy="12" r="2" fill="#2196f3" opacity="0.7"/>
    <circle cx="32" cy="35" r="1.5" fill="#03a9f4" opacity="0.6"/>
  </g>
  
  <!-- Sparkles -->
  <g fill="#ffc107" opacity="0.8">
    <circle cx="15" cy="20" r="1"/>
    <circle cx="80" cy="30" r="1.5"/>
    <circle cx="20" cy="70" r="1"/>
    <circle cx="75" cy="65" r="1"/>
    <polygon points="85,20 87,24 91,22 87,26 85,30 83,26 79,22 83,24" fill="#ff9800"/>
    <polygon points="25,80 26,82 28,81 26,83 25,85 24,83 22,81 24,82" fill="#ff9800"/>
  </g>
  
  <!-- Gradient overlay for depth -->
  <defs>
    <radialGradient id="glow" cx="50%" cy="30%" r="70%">
      <stop offset="0%" style="stop-color:white;stop-opacity:0.3" />
      <stop offset="100%" style="stop-color:white;stop-opacity:0" />
    </radialGradient>
  </defs>
  <circle cx="50" cy="50" r="45" fill="url(#glow)"/>
</svg>
