<?xml version="1.0" encoding="UTF-8"?>
<svg version="1.1" xmlns="http://www.w3.org/2000/svg" width="491" height="491">
<path d="M0 0 C0.98961731 0.00054382 1.97923462 0.00108765 2.99884033 0.00164795 C19.03801916 0.04207334 34.4719998 0.90568467 50.1875 4.375 C51.18281738 4.59462402 52.17813477 4.81424805 53.20361328 5.04052734 C98.06822035 15.29342881 137.87385067 36.63110378 171.1875 68.375 C171.78788086 68.94669922 172.38826172 69.51839844 173.00683594 70.10742188 C181.89752728 78.63550887 189.88983559 87.45241753 197.1875 97.375 C197.82679443 98.23109863 197.82679443 98.23109863 198.47900391 99.10449219 C208.59173827 112.67231514 217.04922929 127.03568874 224.1875 142.375 C224.68032471 143.43315918 224.68032471 143.43315918 225.18310547 144.51269531 C234.30673367 164.41636444 240.89043519 185.71615293 244.1875 207.375 C244.36265137 208.48931396 244.53780273 209.60362793 244.71826172 210.75170898 C246.35196776 222.23064351 246.58650305 233.60469627 246.5625 245.1875 C246.56168427 246.67192596 246.56168427 246.67192596 246.56085205 248.18634033 C246.52042666 264.22551916 245.65681533 279.6594998 242.1875 295.375 C241.96787598 296.37031738 241.74825195 297.36563477 241.52197266 298.39111328 C231.26907119 343.25572035 209.93139622 383.06135067 178.1875 416.375 C177.32995117 417.27557129 177.32995117 417.27557129 176.45507812 418.19433594 C167.92699113 427.08502728 159.11008247 435.07733559 149.1875 442.375 C148.33140137 443.01429443 148.33140137 443.01429443 147.45800781 443.66650391 C133.89018486 453.77923827 119.52681126 462.23672929 104.1875 469.375 C103.12934082 469.86782471 103.12934082 469.86782471 102.04980469 470.37060547 C82.14613556 479.49423367 60.84634707 486.07793519 39.1875 489.375 C38.07318604 489.55015137 36.95887207 489.72530273 35.81079102 489.90576172 C24.33185649 491.53946776 12.95780373 491.77400305 1.375 491.75 C0.38538269 491.74945618 -0.60423462 491.74891235 -1.62384033 491.74835205 C-17.66301916 491.70792666 -33.0969998 490.84431533 -48.8125 487.375 C-49.80781738 487.15537598 -50.80313477 486.93575195 -51.82861328 486.70947266 C-96.69322035 476.45657119 -136.49885067 455.11889622 -169.8125 423.375 C-170.41288086 422.80330078 -171.01326172 422.23160156 -171.63183594 421.64257812 C-180.52252728 413.11449113 -188.51483559 404.29758247 -195.8125 394.375 C-196.23869629 393.80426758 -196.66489258 393.23353516 -197.10400391 392.64550781 C-207.21673827 379.07768486 -215.67422929 364.71431126 -222.8125 349.375 C-223.1410498 348.66956055 -223.46959961 347.96412109 -223.80810547 347.23730469 C-232.93173367 327.33363556 -239.51543519 306.03384707 -242.8125 284.375 C-242.98765137 283.26068604 -243.16280273 282.14637207 -243.34326172 280.99829102 C-244.97696776 269.51935649 -245.21150305 258.14530373 -245.1875 246.5625 C-245.18668427 245.07807404 -245.18668427 245.07807404 -245.18585205 243.56365967 C-245.14542666 227.52448084 -244.28181533 212.0905002 -240.8125 196.375 C-240.59287598 195.37968262 -240.37325195 194.38436523 -240.14697266 193.35888672 C-229.89407119 148.49427965 -208.55639622 108.68864933 -176.8125 75.375 C-176.24080078 74.77461914 -175.66910156 74.17423828 -175.08007812 73.55566406 C-166.55199113 64.66497272 -157.73508247 56.67266441 -147.8125 49.375 C-147.24176758 48.94880371 -146.67103516 48.52260742 -146.08300781 48.08349609 C-132.51518486 37.97076173 -118.15181126 29.51327071 -102.8125 22.375 C-102.10706055 22.0464502 -101.40162109 21.71790039 -100.67480469 21.37939453 C-80.77113556 12.25576633 -59.47134707 5.67206481 -37.8125 2.375 C-36.69818604 2.19984863 -35.58387207 2.02469727 -34.43579102 1.84423828 C-22.95685649 0.21053224 -11.58280373 -0.02400305 0 0 Z " fill="#F3DFE1" transform="translate(244.8125,-0.375)"/>
<path d="M0 0 C0.98961731 0.00054382 1.97923462 0.00108765 2.99884033 0.00164795 C19.03801916 0.04207334 34.4719998 0.90568467 50.1875 4.375 C51.18281738 4.59462402 52.17813477 4.81424805 53.20361328 5.04052734 C98.06822035 15.29342881 137.87385067 36.63110378 171.1875 68.375 C171.78788086 68.94669922 172.38826172 69.51839844 173.00683594 70.10742188 C181.89752728 78.63550887 189.88983559 87.45241753 197.1875 97.375 C197.82679443 98.23109863 197.82679443 98.23109863 198.47900391 99.10449219 C208.59173827 112.67231514 217.04922929 127.03568874 224.1875 142.375 C224.68032471 143.43315918 224.68032471 143.43315918 225.18310547 144.51269531 C234.30673367 164.41636444 240.89043519 185.71615293 244.1875 207.375 C244.36265137 208.48931396 244.53780273 209.60362793 244.71826172 210.75170898 C246.35196776 222.23064351 246.58650305 233.60469627 246.5625 245.1875 C246.56168427 246.67192596 246.56168427 246.67192596 246.56085205 248.18634033 C246.52042666 264.22551916 245.65681533 279.6594998 242.1875 295.375 C241.96787598 296.37031738 241.74825195 297.36563477 241.52197266 298.39111328 C231.26907119 343.25572035 209.93139622 383.06135067 178.1875 416.375 C177.32995117 417.27557129 177.32995117 417.27557129 176.45507812 418.19433594 C167.92699113 427.08502728 159.11008247 435.07733559 149.1875 442.375 C148.33140137 443.01429443 148.33140137 443.01429443 147.45800781 443.66650391 C133.89018486 453.77923827 119.52681126 462.23672929 104.1875 469.375 C103.12934082 469.86782471 103.12934082 469.86782471 102.04980469 470.37060547 C82.14613556 479.49423367 60.84634707 486.07793519 39.1875 489.375 C38.07318604 489.55015137 36.95887207 489.72530273 35.81079102 489.90576172 C24.33185649 491.53946776 12.95780373 491.77400305 1.375 491.75 C0.38538269 491.74945618 -0.60423462 491.74891235 -1.62384033 491.74835205 C-17.66301916 491.70792666 -33.0969998 490.84431533 -48.8125 487.375 C-49.80781738 487.15537598 -50.80313477 486.93575195 -51.82861328 486.70947266 C-96.69322035 476.45657119 -136.49885067 455.11889622 -169.8125 423.375 C-170.41288086 422.80330078 -171.01326172 422.23160156 -171.63183594 421.64257812 C-180.52252728 413.11449113 -188.51483559 404.29758247 -195.8125 394.375 C-196.23869629 393.80426758 -196.66489258 393.23353516 -197.10400391 392.64550781 C-207.21673827 379.07768486 -215.67422929 364.71431126 -222.8125 349.375 C-223.1410498 348.66956055 -223.46959961 347.96412109 -223.80810547 347.23730469 C-232.93173367 327.33363556 -239.51543519 306.03384707 -242.8125 284.375 C-242.98765137 283.26068604 -243.16280273 282.14637207 -243.34326172 280.99829102 C-244.97696776 269.51935649 -245.21150305 258.14530373 -245.1875 246.5625 C-245.18668427 245.07807404 -245.18668427 245.07807404 -245.18585205 243.56365967 C-245.14542666 227.52448084 -244.28181533 212.0905002 -240.8125 196.375 C-240.59287598 195.37968262 -240.37325195 194.38436523 -240.14697266 193.35888672 C-229.89407119 148.49427965 -208.55639622 108.68864933 -176.8125 75.375 C-176.24080078 74.77461914 -175.66910156 74.17423828 -175.08007812 73.55566406 C-166.55199113 64.66497272 -157.73508247 56.67266441 -147.8125 49.375 C-147.24176758 48.94880371 -146.67103516 48.52260742 -146.08300781 48.08349609 C-132.51518486 37.97076173 -118.15181126 29.51327071 -102.8125 22.375 C-102.10706055 22.0464502 -101.40162109 21.71790039 -100.67480469 21.37939453 C-80.77113556 12.25576633 -59.47134707 5.67206481 -37.8125 2.375 C-36.69818604 2.19984863 -35.58387207 2.02469727 -34.43579102 1.84423828 C-22.95685649 0.21053224 -11.58280373 -0.02400305 0 0 Z M-42.8125 20.375 C-43.86751709 20.57585205 -43.86751709 20.57585205 -44.94384766 20.78076172 C-63.37041628 24.46786313 -81.93158259 31.15026461 -98.8125 39.375 C-99.41787598 39.66810059 -100.02325195 39.96120117 -100.64697266 40.26318359 C-121.82269574 50.66854421 -140.8407573 65.07830175 -157.8125 81.375 C-158.59778076 82.12740967 -158.59778076 82.12740967 -159.39892578 82.89501953 C-164.22305539 87.52109656 -164.22305539 87.52109656 -168.8125 92.375 C-168.8125 93.035 -168.8125 93.695 -168.8125 94.375 C-169.4725 94.375 -170.1325 94.375 -170.8125 94.375 C-172.12692906 95.68913889 -172.12692906 95.68913889 -173.4296875 97.4609375 C-174.20723389 98.47172363 -174.20723389 98.47172363 -175.00048828 99.50292969 C-175.55720215 100.24446289 -176.11391602 100.98599609 -176.6875 101.75 C-177.26612793 102.51731445 -177.84475586 103.28462891 -178.44091797 104.07519531 C-193.09428262 123.69546413 -205.25604644 144.36944091 -213.8125 167.375 C-214.48539063 169.18097656 -214.48539063 169.18097656 -215.171875 171.0234375 C-218.88713593 181.59587757 -221.55696892 192.40645808 -223.8125 203.375 C-223.98056152 204.18130859 -224.14862305 204.98761719 -224.32177734 205.81835938 C-231.0724722 239.98457044 -227.88177737 277.26510543 -217.8125 310.375 C-217.59368164 311.10557617 -217.37486328 311.83615234 -217.14941406 312.58886719 C-211.75232995 330.36242864 -204.62373441 347.57853378 -194.8125 363.375 C-194.46219727 363.94766602 -194.11189453 364.52033203 -193.75097656 365.11035156 C-186.27587076 377.30021413 -177.85308264 388.42151353 -168.10546875 398.89453125 C-166.14981934 401.01009748 -164.28684119 403.16743291 -162.4375 405.375 C-135.05654256 436.62225005 -94.39022026 457.50015313 -54.6875 467.6875 C-53.79562988 467.91800049 -52.90375977 468.14850098 -51.98486328 468.38598633 C-34.72800926 472.56886095 -17.6514856 473.95557231 0.0625 473.875 C1.08398132 473.87356995 2.10546265 473.87213989 3.15789795 473.8706665 C29.99366854 473.77812035 57.50260919 470.5956653 82.15307617 459.2878418 C84.69962758 458.1452094 87.30295283 457.23161462 89.9375 456.3125 C104.15113415 450.90096362 117.90247331 443.32435719 130.1875 434.375 C130.79899902 433.93575195 131.41049805 433.49650391 132.04052734 433.04394531 C140.4726566 426.97018042 148.40233247 420.62545246 155.9296875 413.45703125 C158.1875 411.375 158.1875 411.375 160.1875 410.375 C160.1875 409.715 160.1875 409.055 160.1875 408.375 C160.8475 408.375 161.5075 408.375 162.1875 408.375 C162.1875 407.715 162.1875 407.055 162.1875 406.375 C162.8475 406.375 163.5075 406.375 164.1875 406.375 C164.1875 405.715 164.1875 405.055 164.1875 404.375 C164.8475 404.375 165.5075 404.375 166.1875 404.375 C166.1875 403.715 166.1875 403.055 166.1875 402.375 C166.8475 402.375 167.5075 402.375 168.1875 402.375 C169.60456502 400.82611498 170.94559496 399.20738466 172.25 397.5625 C177.07060216 391.51176013 177.07060216 391.51176013 179.39453125 388.79296875 C195.76369925 369.59237709 208.18603172 346.09041917 216.49511719 322.34375 C217.15048374 320.48025356 217.84369881 318.63019392 218.5390625 316.78125 C232.84165282 277.12007929 233.91889137 228.77347038 222.1875 188.375 C221.75107964 186.80214504 221.31489388 185.22922497 220.87890625 183.65625 C212.45835756 153.89567505 198.8353906 126.33865388 179.1875 102.375 C178.72617676 101.81071289 178.26485352 101.24642578 177.78955078 100.66503906 C172.16334946 93.83281491 166.28882376 87.29142543 160.0625 81 C159.5058667 80.43410156 158.9492334 79.86820313 158.37573242 79.28515625 C155.76978172 76.32225994 155.76978172 76.32225994 152.1875 75.375 C152.1875 74.715 152.1875 74.055 152.1875 73.375 C150.22645031 71.63763254 148.26237836 70.02997672 146.1875 68.4375 C145.55593994 67.94950928 144.92437988 67.46151855 144.27368164 66.95874023 C126.07542263 53.03690452 106.59583522 40.72246083 85.1875 32.375 C84.55021973 32.12057129 83.91293945 31.86614258 83.25634766 31.60400391 C74.29473179 28.06634731 65.16816756 25.47165009 55.8125 23.1875 C54.84578369 22.9495874 53.87906738 22.7116748 52.88305664 22.46655273 C36.2145053 18.55332898 20.10478187 16.85174044 3 17 C2.06272064 17.00398804 1.12544128 17.00797607 0.15975952 17.01208496 C-14.3304797 17.08424397 -28.54680625 17.6097242 -42.8125 20.375 Z " fill="#FEFEFE" transform="translate(244.8125,-0.375)"/>
<path d="M0 0 C2.5 2.375 2.5 2.375 4 5 C4 5.66 4 6.32 4 7 C4.75925781 6.57847656 5.51851563 6.15695313 6.30078125 5.72265625 C7.79158203 4.90087891 7.79158203 4.90087891 9.3125 4.0625 C10.79169922 3.24458984 10.79169922 3.24458984 12.30078125 2.41015625 C18.09193534 -0.61532367 23.59008097 -0.45906582 30 0 C36.41397416 2.09911882 39.68760116 6.55622284 42.8125 12.375 C43.4003125 13.674375 43.4003125 13.674375 44 15 C44.474375 14.29875 44.94875 13.5975 45.4375 12.875 C52.16453139 5.32759893 62.0203826 0.45198021 72.13671875 -0.203125 C83.44673643 -0.35243216 91.56449946 1.11795991 100 9 C105.17375995 15.63302558 105.8043287 21.7556308 105 30 C103.10076466 36.62667983 99.61338453 42.86323895 93.5625 46.44140625 C87.58671297 49.49009992 83.08579895 51.12956237 76.3125 51.0625 C74.54326172 51.04896484 74.54326172 51.04896484 72.73828125 51.03515625 C71.83464844 51.02355469 70.93101562 51.01195312 70 51 C70.33 51.99 70.66 52.98 71 54 C74.98112836 55.99056418 79.67384538 55.53933493 84 55 C86.44188961 53.88437631 88.5974331 52.55665498 90.8671875 51.12890625 C94.49356199 49.20945162 96.96458935 49.38442888 101 50 C103.43119623 51.87015094 104.64069173 53.28138345 106 56 C106.56685151 62.91558842 106.56685151 62.91558842 104.5625 66.75 C94.78273286 75.33711261 81.69699608 74.61629925 69.46191406 74.17480469 C59.63167162 73.47682238 51.741345 68.17709224 45.21484375 61.05078125 C38.28589937 52.38534467 37.54928762 44.95064146 38 34 C36.824375 34.495 35.64875 34.99 34.4375 35.5 C30.46230928 36.96787078 27.2692782 37.56386693 23 37 C18.88342562 34.8481543 17.62643814 32.49988707 16.1875 28.25 C15.77529043 26.83801142 15.37389236 25.42261484 15 24 C11.71303767 23.20046862 10.28976808 22.90341064 7 24 C4.55595896 36.78576842 5.03751046 47.99481346 10.6875 59.765625 C12.0912388 63.22483848 12.57000737 65.31530947 12 69 C10.43505859 71.14355469 10.43505859 71.14355469 8 73 C5.38955874 73.39877039 3.2079659 73.56217741 0.6015625 73.53125 C-0.11101715 73.5350769 -0.8235968 73.53890381 -1.55776978 73.54284668 C-3.0622906 73.5455629 -4.56685888 73.53822172 -6.07128906 73.52148438 C-8.36111228 73.50012952 -10.64777603 73.52125847 -12.9375 73.546875 C-14.4036527 73.54423043 -15.86980345 73.53910278 -17.3359375 73.53125 C-18.01425629 73.53934692 -18.69257507 73.54744385 -19.39144897 73.55578613 C-24.53297598 73.45563846 -27.07476163 72.06233976 -31 69 C-31 69.66 -31 70.32 -31 71 C-35.80783556 73.79209567 -40.5112612 73.36795751 -45.9375 73.375 C-46.92685547 73.39949219 -47.91621094 73.42398438 -48.93554688 73.44921875 C-56.24496577 73.47871203 -56.24496577 73.47871203 -60.19140625 70.9765625 C-60.78824219 70.32429688 -61.38507813 69.67203125 -62 69 C-63.0725 69.639375 -64.145 70.27875 -65.25 70.9375 C-72.22992223 75.09860749 -80.11442646 74.59701503 -88 74 C-93.42932232 72.51118434 -96.96663457 69.78338394 -100 65 C-102.11643159 60.76760546 -102.16295059 57.41191402 -101.984375 52.71484375 C-101.94929939 51.28193042 -101.91548703 49.84898572 -101.8828125 48.41601562 C-101.82138499 46.1863432 -101.75087404 43.95829986 -101.65722656 41.72973633 C-101.28514303 32.3597115 -101.67217761 25.70640655 -106.68408203 17.4140625 C-108 15 -108 15 -108.125 11.0625 C-106.63944482 7.01848869 -104.89740126 4.14214691 -101.15014648 1.88647461 C-97.26012641 0.28267503 -93.2179351 0.58934775 -89.0625 0.5625 C-87.72155273 0.51319336 -87.72155273 0.51319336 -86.35351562 0.46289062 C-81.80142948 0.42571694 -79.69122025 0.4699451 -75.984375 3.3125 C-70.31697217 10.98803769 -70.2267445 18.73084753 -71 28 C-71.66665128 31.3064371 -72.47914963 34.54484411 -73.328125 37.80859375 C-74.42909192 43.03818662 -75.46803228 50.06393544 -73 55 C-69.99581131 54.67522284 -68.42029035 54.42029035 -66.25 52.25 C-63.99176947 48.18518504 -63.87267334 44.04980701 -63.8671875 39.47265625 C-63.86589844 38.43302734 -63.86460937 37.39339844 -63.86328125 36.32226562 C-63.86908203 34.70868164 -63.86908203 34.70868164 -63.875 33.0625 C-63.87113281 31.99064453 -63.86726563 30.91878906 -63.86328125 29.81445312 C-63.86955213 24.75072009 -64.00655716 19.98238129 -65 15 C-65.15426841 13.29546055 -65.26155297 11.58574775 -65.3125 9.875 C-65.36857422 8.63363281 -65.36857422 8.63363281 -65.42578125 7.3671875 C-65 5 -65 5 -63.66796875 2.71875 C-59.36878397 -0.05085659 -54.99500766 0.50238353 -50 0.625 C-49.00226563 0.62628906 -48.00453125 0.62757813 -46.9765625 0.62890625 C-38.33588037 0.7331504 -38.33588037 0.7331504 -35 3 C-33.22880789 5.90413567 -32.74752984 8.09563894 -32.72875977 11.47387695 C-32.71347984 12.79093376 -32.71347984 12.79093376 -32.69789124 14.13459778 C-32.69575119 15.07631332 -32.69361115 16.01802887 -32.69140625 16.98828125 C-32.66624234 18.99414348 -32.64084438 21.00000279 -32.61523438 23.00585938 C-32.58652626 26.15909034 -32.56250137 29.31227043 -32.54370117 32.46557617 C-32.52197528 35.51508027 -32.48252672 38.56398585 -32.44140625 41.61328125 C-32.44123253 43.01674553 -32.44123253 43.01674553 -32.4410553 44.44856262 C-32.35676709 50.05667136 -31.58109228 54.00258422 -29 59 C-23.8098108 51.2147162 -23.01949368 42.14084923 -24 33 C-25.26526544 27.61222652 -26.97184921 22.45452899 -29.109375 17.3515625 C-30.35430493 14.06451067 -30.38645453 11.47809076 -30 8 C-26.59025265 4.43690423 -21.86028064 3.55923439 -17.25 2.3125 C-16.4765625 2.08755859 -15.703125 1.86261719 -14.90625 1.63085938 C-9.79112873 0.21905157 -5.30813006 -0.43461764 0 0 Z " fill="#DC4B7D" transform="translate(284,158)"/>
<path d="M0 0 C2.4375 1.8125 2.4375 1.8125 4 4 C4 4.99 4 5.98 4 7 C4.68707031 6.57847656 5.37414062 6.15695313 6.08203125 5.72265625 C6.98308594 5.17480469 7.88414062 4.62695312 8.8125 4.0625 C9.70582031 3.51722656 10.59914062 2.97195312 11.51953125 2.41015625 C17.3576598 -0.90884282 23.45965229 -0.63389915 30 0 C36.6465308 1.87936388 41.5110569 5.52939871 45.4609375 11.1640625 C52.63042031 24.37483539 54.1204876 38.71050837 49.97265625 53.1796875 C46.71049503 62.63864494 42.83264377 69.05194064 33.76953125 73.6328125 C29.9198247 75.21747576 26.1934975 75.49691032 22.0625 75.4375 C21.01352539 75.43266602 21.01352539 75.43266602 19.94335938 75.42773438 C14.28697112 75.27485902 10.65894564 74.10596376 6 71 C6.87798595 79.6243561 6.87798595 79.6243561 9.625 87.75 C11.31801214 91.75166506 12.05460479 95.71514902 11 100 C8.12743724 102.93219299 5.65727597 103.36887396 1.61804199 103.46813965 C0.58507996 103.46844177 0.58507996 103.46844177 -0.46875 103.46875 C-1.186073 103.47636353 -1.903396 103.48397705 -2.64245605 103.49182129 C-4.15531949 103.50260101 -5.66825722 103.50548402 -7.18115234 103.50097656 C-9.49312367 103.5000029 -11.80178789 103.54166544 -14.11328125 103.5859375 C-15.5859306 103.59114404 -17.05859145 103.5938327 -18.53125 103.59375 C-19.21989136 103.61014526 -19.90853271 103.62654053 -20.61804199 103.64343262 C-24.30564553 103.59043464 -25.75196236 103.23507606 -28.46679688 100.66210938 C-30.62889478 96.90804639 -30.09386522 95.17036117 -29 91 C-28.33162578 89.50297406 -27.65521822 88.00952118 -26.97290039 86.51879883 C-24.58763059 80.60459979 -24.40422112 75.20505539 -24.43359375 68.88671875 C-24.42739517 67.7553096 -24.42119659 66.62390045 -24.41481018 65.45820618 C-24.4077438 63.07737075 -24.41082992 60.69648558 -24.42358398 58.31567383 C-24.43742309 54.70755272 -24.40335727 51.10204247 -24.36523438 47.49414062 C-24.15449883 32.00525564 -24.15449883 32.00525564 -28.92602539 17.49145508 C-30.24617246 14.42891794 -30.39416609 12.30293718 -30 9 C-28.05142187 6.17393966 -25.79656316 5.36986606 -22.578125 4.39453125 C-21.71703125 4.13349609 -20.8559375 3.87246094 -19.96875 3.60351562 C-19.0715625 3.34248047 -18.174375 3.08144531 -17.25 2.8125 C-16.36828125 2.53986328 -15.4865625 2.26722656 -14.578125 1.98632812 C-9.61636646 0.51330606 -5.2298955 -0.50196144 0 0 Z " fill="#DC4A7C" transform="translate(127,158)"/>
<path d="M0 0 C2.625 1.8125 2.625 1.8125 4 4 C4 4.99 4 5.98 4 7 C4.62648437 6.57847656 5.25296875 6.15695312 5.8984375 5.72265625 C6.71570313 5.17480469 7.53296875 4.62695312 8.375 4.0625 C9.18710938 3.51722656 9.99921875 2.97195313 10.8359375 2.41015625 C16.61448038 -1.35528415 23.34356205 -0.57188178 30 0 C37.50835083 2.08945004 42.19111059 6.31354836 46 13 C52.01820585 24.76549568 53.35130864 39.05549205 50.19921875 51.98828125 C47.06320641 60.98680464 41.2847626 69.146934 32.6875 73.625 C24.09865491 76.7672604 15.92335765 75.56906761 7.765625 71.875 C7.18296875 71.58625 6.6003125 71.2975 6 71 C6.13216123 78.77348323 6.74128277 84.44658278 10.90234375 91.0703125 C12.51970779 93.91365 12.73749865 95.82875582 12 99 C8.71474459 102.3908432 6.23109033 103.46582233 1.50474548 103.58143616 C0.82126541 103.57647629 0.13778534 103.57151642 -0.56640625 103.56640625 C-1.2823143 103.57260483 -1.99822235 103.57880341 -2.73582458 103.58518982 C-4.24273321 103.59226624 -5.74972038 103.58915196 -7.2565918 103.57641602 C-9.55989137 103.56251574 -11.85915055 103.59668191 -14.16210938 103.63476562 C-15.63020932 103.63571663 -17.09831435 103.633859 -18.56640625 103.62890625 C-19.25191055 103.64216446 -19.93741486 103.65542267 -20.64369202 103.66908264 C-24.3189992 103.59758331 -25.76157806 103.22637685 -28.46459961 100.65991211 C-30.63054688 96.90764695 -30.09388235 95.17042646 -29 91 C-28.03932985 88.47824085 -27.02606666 85.99662916 -25.9375 83.52734375 C-23.73170044 77.58087576 -23.81344107 71.46944382 -23.76171875 65.2109375 C-23.753647 64.27126129 -23.74557526 63.33158508 -23.73725891 62.36343384 C-23.72346765 60.37821265 -23.71272347 58.39296825 -23.70483398 56.40771484 C-23.69333898 54.39657542 -23.67292672 52.38546592 -23.64331055 50.37451172 C-23.46538131 38.27333535 -23.36956536 27.84056985 -29.1081543 16.88427734 C-30.42930408 14.0929732 -30.38036759 12.04294073 -30 9 C-26.90385949 4.96563509 -23.09725293 3.64781775 -18.375 2.25 C-17.30910645 1.92914429 -17.30910645 1.92914429 -16.22167969 1.60180664 C-10.86869274 0.07524556 -5.55024818 -1.23588522 0 0 Z " fill="#DC4A7C" transform="translate(152,262)"/>
<path d="M0 0 C2.86159685 3.03528175 3.37055502 5.11044339 3.34057617 9.22753906 C3.34023628 10.78870453 3.34023628 10.78870453 3.33988953 12.38140869 C3.32440567 13.49820007 3.30892181 14.61499146 3.29296875 15.765625 C3.28872391 16.91415955 3.28447906 18.06269409 3.28010559 19.24603271 C3.26331333 22.9142603 3.22565898 26.58193847 3.1875 30.25 C3.17245392 32.73697123 3.15876539 35.22395108 3.14648438 37.7109375 C3.11340796 43.80747912 3.06320256 49.90370031 3 56 C8.82584666 54.23063419 8.82584666 54.23063419 13 50 C13.46337203 45.59796571 13.48038907 43.7205836 11 40 C10.5 36.625 10.5 36.625 11 33 C13.74156104 29.76467582 15.46106224 28.2768564 19.66259766 27.52099609 C22.81083355 27.32663522 25.90902026 27.31811221 29.0625 27.375 C30.67608398 27.34599609 30.67608398 27.34599609 32.32226562 27.31640625 C40.1220023 27.36476172 40.1220023 27.36476172 44.20703125 30.3203125 C46.59107534 33.88339364 46.75108911 35.793901 46 40 C42.94195847 43.95746551 39.57923271 46.06654619 35 48 C34.34 48 33.68 48 33 48 C31.23414802 50.59684114 30.9992083 51.98396809 31.15625 55.1640625 C32.1698343 59.77211703 33.99715557 62.9101128 36.5625 66.8125 C37.00996582 67.51101074 37.45743164 68.20952148 37.91845703 68.92919922 C41.59563748 74.5840888 45.68953612 79.81552501 50 85 C52.37483703 87.96519199 53.87436999 90.30205549 54.5625 94.125 C54 97 54 97 51.83984375 99.14428711 C46.92161675 102.35813197 41.71585298 101.61577275 36 101.5625 C34.824375 101.58634766 33.64875 101.61019531 32.4375 101.63476562 C24.00036945 101.62038415 24.00036945 101.62038415 19.9765625 99.125 C17.21632103 94.76098187 15.27688512 90.22828304 13.375 85.4375 C12.61700648 83.55916134 11.85415311 81.68277493 11.0859375 79.80859375 C10.7564209 78.98157959 10.4269043 78.15456543 10.08740234 77.30249023 C8.95613829 74.90712622 7.74927089 72.98900272 6 71 C5.34 71 4.68 71 4 71 C3.46709769 76.54218399 4.24419101 79.97118606 6.5625 85.0625 C8.7655968 90.0194678 9.86735386 92.83731581 8 98 C5.59466277 100.45226007 4.20907436 100.97492243 0.76367188 101.38818359 C-1.11481445 101.39325928 -1.11481445 101.39325928 -3.03125 101.3984375 C-4.04064636 101.40274277 -4.04064636 101.40274277 -5.07043457 101.40713501 C-6.48918502 101.40917096 -7.90796384 101.40367382 -9.32666016 101.39111328 C-11.493154 101.37505076 -13.65778264 101.39097554 -15.82421875 101.41015625 C-17.20573327 101.40817373 -18.58724663 101.40432987 -19.96875 101.3984375 C-21.22107422 101.39505371 -22.47339844 101.39166992 -23.76367188 101.38818359 C-27.18859473 100.97737888 -28.59779482 100.42722815 -31 98 C-32.48745829 91.94079492 -30.78299103 86.4743162 -27.97265625 81.10546875 C-26.19473279 77.25687138 -25.87316869 73.35094657 -25.80712891 69.15307617 C-25.79106598 68.21827927 -25.77500305 67.28348236 -25.75845337 66.32035828 C-25.71362761 62.06506419 -25.67296049 57.80991858 -25.64990234 53.55444336 C-25.63333972 51.31507985 -25.6060459 49.07576928 -25.56787109 46.83666992 C-25.51292431 43.59265984 -25.49120289 40.34988235 -25.4765625 37.10546875 C-25.45389313 36.1125029 -25.43122375 35.11953705 -25.40786743 34.09648132 C-25.42573603 28.17638642 -26.24282162 24.52384634 -29.86361694 19.77461243 C-32.0169204 16.41194431 -31.64620032 13.87720189 -31 10 C-25.05550798 2.86660958 -9.06060838 -2.07199959 0 0 Z " fill="#DC4B7D" transform="translate(335,234)"/>
<path d="M0 0 C0.87148682 0.00765381 1.74297363 0.01530762 2.64086914 0.02319336 C11.131937 0.31376222 17.47270471 2.67422271 24.01953125 8.16015625 C27.84452899 12.44879007 27.85012549 17.3257495 27.62109375 22.87109375 C27.0612561 26.42681937 25.91960224 28.2946775 23.1875 30.625 C19.44713292 32.49518354 15.25006066 32.30315973 11.1875 31.625 C7.40819047 29.03595577 5.56839668 24.89322609 4.1875 20.625 C0.81313814 20.29119186 0.81313814 20.29119186 -2.8125 20.625 C-5.22644113 22.9118916 -5.77456314 24.33712618 -6.2109375 27.6484375 C-6.35129924 36.14029493 -6.35129924 36.14029493 -2.8125 43.625 C0.75169608 46.76987889 4.18150575 47.18139986 8.78125 47.06640625 C12.37999438 46.40624697 15.05401153 44.66621712 18.046875 42.62109375 C20.87949282 41.30299604 22.26709391 41.61227853 25.1875 42.625 C26.96875 43.83984375 26.96875 43.83984375 28.1875 45.625 C29.48884204 52.74984768 28.35572835 59.16864196 24.8125 65.4296875 C21.11660326 70.42270184 16.09808988 73.78725357 10.1875 75.625 C-0.97328558 76.91080479 -12.23493393 76.4491803 -21.5234375 69.63671875 C-30.66927357 61.87214531 -35.98454972 53.31847797 -37.1328125 41.26171875 C-37.54009224 28.83968661 -34.23680341 19.74390771 -25.8125 10.625 C-18.54423852 3.10495117 -10.41112187 -0.13628444 0 0 Z " fill="#DC4B7D" transform="translate(276.8125,260.375)"/>
<path d="M0 0 C2.74656056 1.99164195 4.67090984 3.57380723 5.45729065 6.98178101 C5.64210164 9.39238359 5.66588803 11.75827098 5.63671875 14.17578125 C5.65228569 15.50176582 5.65228569 15.50176582 5.66816711 16.85453796 C5.69780385 19.67425519 5.69448637 22.49265562 5.6875 25.3125 C5.69642896 28.12126223 5.71254134 30.92967431 5.7389679 33.73832703 C5.75373264 35.48241866 5.75777658 37.22664642 5.74919128 38.97077942 C5.78023935 45.66186819 6.73144165 51.31651119 9.625 57.4375 C11.20327289 61.52666157 12.26988456 65.68907611 11 70 C5.37336838 74.32955122 -1.08025002 73.48555691 -7.8293457 73.44604492 C-10.05968814 73.43751076 -12.2874868 73.46636037 -14.51757812 73.49804688 C-15.9401034 73.49965857 -17.3626332 73.49908196 -18.78515625 73.49609375 C-20.07301025 73.49794678 -21.36086426 73.4997998 -22.68774414 73.50170898 C-26 73 -26 73 -28.41967773 71.19555664 C-30.32243737 68.55203472 -30.553489 66.51752495 -30.40234375 63.2890625 C-29.7781651 59.73791019 -28.43142514 56.58041214 -26.97265625 53.296875 C-23.13164837 44.22654314 -23.9761534 32.18000129 -27.1484375 23.015625 C-27.97662534 20.9711776 -27.97662534 20.9711776 -29.07421875 18.984375 C-30.06680871 16.85679821 -30.35991674 15.33662519 -30.4375 13 C-30.47746094 12.34 -30.51742187 11.68 -30.55859375 11 C-29.65222352 7.7548143 -27.79256775 6.7936597 -25 5 C-22.2833523 3.86567671 -19.52041576 3.04231945 -16.6875 2.25 C-15.96626953 2.02957031 -15.24503906 1.80914062 -14.50195312 1.58203125 C-9.51653781 0.14229696 -5.18244841 -0.62296789 0 0 Z " fill="#DC4A7C" transform="translate(232,262)"/>
<path d="M0 0 C4.01801552 2.96064302 4.01801552 2.96064302 5.375 5.75 C5.96090998 9.72116763 6.22826797 12.17473605 4.30859375 15.71875 C0.78956629 20.24458368 -3.0036593 22.67008549 -8.625 23.75 C-14.0104509 24.36285359 -18.18880456 24.44245137 -23.125 22.0625 C-26.59798792 18.84998617 -28.35894212 16.53638864 -29.0625 11.8125 C-28.40953854 7.24176979 -26.67172871 4.37933686 -23.03515625 1.484375 C-16.12380379 -2.66535882 -7.467312 -2.57493517 0 0 Z " fill="#DD4C7E" transform="translate(230.625,236.25)"/>
<path d="M0 0 C5.245496 5.39120422 5.20699702 10.16525887 5.25 17.25 C5.270625 18.08402344 5.29125 18.91804688 5.3125 19.77734375 C5.34708527 25.28504877 4.64894021 29.1393233 2 34 C-0.82883747 35.41441874 -2.87376745 35.31900332 -6 35 C-9.80790102 31.46409191 -10.87908169 26.44159752 -11.30078125 21.4140625 C-11.34130509 8.31135406 -11.34130509 8.31135406 -8 2 C-4.75846834 -0.1610211 -3.76307099 -0.64247553 0 0 Z " fill="#F1DADE" transform="translate(168,282)"/>
<path d="M0 0 C4.01599281 4.49606551 3.44572525 9.75197551 3.375 15.4375 C3.38660156 16.36626953 3.39820313 17.29503906 3.41015625 18.25195312 C3.38751031 23.5548765 3.05961704 27.46803204 0 32 C-3 34 -3 34 -5.4375 34.0625 C-8.60480408 32.74922758 -9.60182141 30.95072427 -11.203125 27.984375 C-13.85709898 21.37545941 -14.21467137 13.04698566 -12.17578125 6.25390625 C-9.28936445 -0.45245248 -7.56291563 -1.85755822 0 0 Z " fill="#F1DADE" transform="translate(145,180)"/>
<path d="M0 0 C2.375 0.25 2.375 0.25 3.375 1.25 C3.93275602 7.60841864 2.98359052 11.94256005 -0.625 17.25 C-3.0625 19.8125 -3.0625 19.8125 -5.625 21.25 C-8.4375 21 -8.4375 21 -10.625 20.25 C-11.36320642 13.16321834 -10.09121579 8.81075318 -5.625 3.25 C-3.0211794 0.28773137 -3.0211794 0.28773137 0 0 Z " fill="#EFD7DB" transform="translate(359.625,176.75)"/>
<path d="M0 0 C0.99 0 1.98 0 3 0 C6.14859096 6.98165821 7.1521906 12.59220953 7.0625 20.3125 C7.05798828 21.05306641 7.05347656 21.79363281 7.04882812 22.55664062 C7.03712175 24.37112899 7.01918898 26.18557534 7 28 C6.67 28 6.34 28 6 28 C5.67 24.37 5.34 20.74 5 17 C4.67 17 4.34 17 4 17 C3.67 18.98 3.34 20.96 3 23 C2.67 23 2.34 23 2 23 C1.93941406 21.92621094 1.87882813 20.85242188 1.81640625 19.74609375 C1.73192349 18.30988685 1.64727946 16.87368942 1.5625 15.4375 C1.52318359 14.73302734 1.48386719 14.02855469 1.44335938 13.30273438 C1.17481721 8.8201459 0.69383803 4.43706503 0 0 Z " fill="#EDD2D9" transform="translate(201,281)"/>
<path d="M0 0 C0.66 0 1.32 0 2 0 C2.99 2.31 3.98 4.62 5 7 C3.02 7.99 3.02 7.99 1 9 C0.67 6.03 0.34 3.06 0 0 Z " fill="#ECD2D9" transform="translate(176,175)"/>
</svg>
